<?xml version="1.0" ?><svg height="60px" version="1.1" viewBox="0 0 60 60" width="60px" xmlns="http://www.w3.org/2000/svg" xmlns:sketch="http://www.bohemiancoding.com/sketch/ns" xmlns:xlink="http://www.w3.org/1999/xlink"><title/><desc/><defs/><g fill="none" fill-rule="evenodd" id="black" stroke="none" stroke-width="1"><g id="slice" transform="translate(-800.000000, -100.000000)"/><g fill="#000000" id="hangouts" transform="translate(12.000000, 18.000000)"><path d="M26.0769231,18.9230769 C27.9886781,18.9230769 29.5384615,17.3732935 29.5384615,15.4615385 L21.4615385,15.4615385 C20.8242868,15.4615385 20.3076923,14.9449439 20.3076923,14.3076923 L20.3076923,1.61538462 C20.3076923,0.978132981 20.8242868,0.461538462 21.4615385,0.461538462 L34.1538462,0.461538462 C34.7910978,0.461538462 35.3076923,0.978132981 35.3076923,1.61538462 L35.3076923,14.3076923 C35.3076923,19.4057056 31.1749364,23.5384615 26.0769231,23.5384615 C25.6335184,23.5384615 25.1936609,23.5071144 24.7596962,23.4450411 C24.1913465,23.3637456 23.7692308,22.8769549 23.7692308,22.3028206 L23.7692308,19.9315183 C23.7692308,19.1775521 24.4805186,18.626157 25.2106867,18.814092 C25.4907757,18.886183 25.78091,18.9230769 26.0769231,18.9230769 Z M6.46153846,18.9230769 C8.37329349,18.9230769 9.92307692,17.3732935 9.92307692,15.4615385 L1.84615385,15.4615385 C1.20890221,15.4615385 0.692307692,14.9449439 0.692307692,14.3076923 L0.692307692,1.61538462 C0.692307692,0.978132981 1.20890221,0.461538462 1.84615385,0.461538462 L14.5384615,0.461538462 C15.1757132,0.461538462 15.6923077,0.978132981 15.6923077,1.61538462 L15.6923077,14.3076923 C15.6923077,19.4057056 11.5595518,23.5384615 6.46153846,23.5384615 C6.01813375,23.5384615 5.57827633,23.5071144 5.14431156,23.4450411 C4.57596191,23.3637456 4.15384615,22.8769549 4.15384615,22.3028206 L4.15384615,19.9315183 C4.15384615,19.1775521 4.86513398,18.626157 5.59530208,18.814092 C5.8753911,18.886183 6.16552538,18.9230769 6.46153846,18.9230769 Z"/></g></g></svg>