<svg xmlns="http://www.w3.org/2000/svg" viewBox="0 0 1200 1200"><defs><style>.cls-1{fill:#a2fdda;}.cls-2{fill:#60ffc7;}.cls-3{fill:#1d3242;}.cls-4,.cls-9{fill:#fff;}.cls-5{fill:#d7e0db;}.cls-6{fill:#2c4151;}.cls-7{fill:#fe7d81;}.cls-8{fill:#c8d1cc;}.cls-9{opacity:0.5;}.cls-10{fill:#b9c2bd;}.cls-11{fill:#29af25;}.cls-12{fill:#f1c40f;}.cls-13{fill:#c11010;}.cls-14{font-size:7px;font-family:ArialMT, Arial;}.cls-15{fill:#f0f0f0;}.cls-16{fill:#51f0b8;}.cls-17{fill:#0e2333;}</style></defs><title>Artboard 1</title><g id="Background"><rect class="cls-1" width="1200" height="1200"/></g><g id="Desk"><rect class="cls-2" x="85" y="1042.5" width="1040" height="40"/></g><g id="Laptop"><path class="cls-3" d="M494,860H720a10,10,0,0,1,10,10v164a0,0,0,0,1,0,0H484a0,0,0,0,1,0,0V870A10,10,0,0,1,494,860Z"/><path class="cls-4" d="M472.5,1027.5h270a0,0,0,0,1,0,0v0a15,15,0,0,1-15,15h-240a15,15,0,0,1-15-15v0A0,0,0,0,1,472.5,1027.5Z"/><rect class="cls-4" x="492.5" y="870" width="228" height="147"/><rect class="cls-5" x="502" y="879" width="148" height="109.67"/><rect class="cls-6" x="502" y="879" width="148" height="10.5"/><rect class="cls-7" x="515.67" y="901.67" width="120.88" height="64.67"/><rect class="cls-8" x="602.02" y="924.5" width="108.5" height="83"/><rect class="cls-1" x="515.67" y="972.08" width="86.67" height="16.58"/><rect class="cls-6" x="602.02" y="924.5" width="108.5" height="10.5"/><rect class="cls-9" x="411.75" y="884.25" width="257.99" height="66" transform="translate(-490.21 651.02) rotate(-45)"/><rect class="cls-9" x="570" y="819" width="12" height="258" transform="translate(312.96 2025.63) rotate(-135)"/><rect class="cls-1" x="521" y="790.33" width="162.67" height="69.67"/><rect class="cls-1" x="416.33" y="860" width="67.67" height="167.5"/><rect class="cls-3" x="508.33" y="860" width="172.67" height="10"/><rect class="cls-3" x="484" y="907.67" width="8.5" height="114.33"/><rect class="cls-3" x="484" y="1017" width="73.67" height="10.5"/><rect class="cls-2" x="486.49" y="1042.46" width="12.01" height="2.29"/><path class="cls-1" d="M467.46,1027.56V1029l2.95-.4a9.68,9.68,0,0,1-.1-1.55,1.5,1.5,0,0,0-3,0,14.19,14.19,0,0,0,.21,2.35,1.5,1.5,0,0,0,2.95-.4v-1.45a1.5,1.5,0,0,0-3,0Z"/><path class="cls-1" d="M467.41,1027.34c.13.72.18,1.52.89,1.93a1.6,1.6,0,0,0,2.32-1,1.51,1.51,0,0,0-1-1.85,1.54,1.54,0,0,0-1.85,1l0,.09.69-.9,0,0,1.16-.15h0l1,1a5.92,5.92,0,0,1-.2-1,1.51,1.51,0,0,0-1.85-1,1.53,1.53,0,0,0-1,1.85Z"/><path class="cls-1" d="M468.75,1027.6a3.86,3.86,0,0,0,.09.92,1.51,1.51,0,0,0,1.85,1,1.53,1.53,0,0,0,1-1.85q0,.16,0-.12a1.51,1.51,0,0,0-1.5-1.5,1.53,1.53,0,0,0-1.5,1.5Z"/><path class="cls-1" d="M470.14,1025.57l-.06,0a1.53,1.53,0,0,0-1,1.85,1.52,1.52,0,0,0,1.85,1l.06,0a1.53,1.53,0,0,0,1-1.85,1.52,1.52,0,0,0-1.85-1Z"/><path class="cls-1" d="M469.13,1027.89a1.86,1.86,0,0,0,.74.69,1.55,1.55,0,0,0,2.05-.54,1.51,1.51,0,0,0-.54-2.05l-.12-.05.54.54-.08-.1a1.55,1.55,0,0,0-2.05-.54,1.51,1.51,0,0,0-.54,2.05Z"/><path class="cls-1" d="M470.79,1028.88a1.5,1.5,0,0,0,0-3,1.5,1.5,0,0,0,0,3Z"/><path class="cls-1" d="M470.79,1028.88a1.5,1.5,0,0,0,0-3,1.5,1.5,0,0,0,0,3Z"/><path class="cls-1" d="M470.81,1028.88a1.5,1.5,0,0,0,0-3,1.5,1.5,0,0,0,0,3Z"/><path class="cls-1" d="M470.83,1028.88a1.5,1.5,0,0,0,0-3,1.5,1.5,0,0,0,0,3Z"/><path class="cls-1" d="M469.35,1027.5v.06a1.5,1.5,0,0,0,3,0v-.06a1.5,1.5,0,0,0-3,0Z"/><path class="cls-1" d="M470.83,1029.13a1.5,1.5,0,0,0,0-3,1.5,1.5,0,0,0,0,3Z"/><path class="cls-1" d="M470.83,1029.13a1.5,1.5,0,0,0,0-3,1.5,1.5,0,0,0,0,3Z"/><path class="cls-1" d="M470.88,1029.13a1.5,1.5,0,0,0,0-3,1.5,1.5,0,0,0,0,3Z"/><path class="cls-1" d="M470.94,1029.1a1.5,1.5,0,0,0,0-3,1.5,1.5,0,0,0,0,3Z"/><path class="cls-1" d="M471,1029.08a1.5,1.5,0,0,0,0-3,1.5,1.5,0,0,0,0,3Z"/><path class="cls-1" d="M469.68,1026.8l-.14.31a1.54,1.54,0,0,0,.54,2.05,1.51,1.51,0,0,0,2.05-.54l.14-.31a1.54,1.54,0,0,0-.54-2.05,1.51,1.51,0,0,0-2.05.54Z"/><path class="cls-1" d="M470.06,1026.67l.34-.09a1.51,1.51,0,0,0-1.5,1.5,1.54,1.54,0,0,0,1.5,1.5,1.85,1.85,0,0,0,1.17-.32,1.54,1.54,0,0,0,.54-2.05,1.51,1.51,0,0,0-2.05-.54Z"/><path class="cls-1" d="M470.85,1031a1.5,1.5,0,0,0,0-3,1.5,1.5,0,0,0,0,3Z"/><path class="cls-1" d="M469,1031.75a1.5,1.5,0,0,0,0-3,1.5,1.5,0,0,0,0,3Z"/><path class="cls-1" d="M469.29,1028.12a16.26,16.26,0,0,0,.31,2.06,6,6,0,0,0,.66,2.38,1.52,1.52,0,0,0,2.05.54,1.53,1.53,0,0,0,.54-2.05,2.72,2.72,0,0,1-.26-1.06l-2.95.4a2.57,2.57,0,0,1,.16,1c-.07,1.93,2.93,1.93,3,0a5,5,0,0,0-.27-1.83c-.53-1.51-3-1.39-2.95.4a6.45,6.45,0,0,0,.67,2.57l2.59-1.51a3.18,3.18,0,0,1-.26-1.29,13.32,13.32,0,0,1-.3-1.63c.12-1.93-2.88-1.92-3,0Z"/><path class="cls-1" d="M468.93,1026.29a3.74,3.74,0,0,0,.24,1.86,1.5,1.5,0,0,0,2.89-.8c-.08-.3-.21-.59-.27-.9v.8l0-.16a1.5,1.5,0,0,0-2.89-.8Z"/><path class="cls-1" d="M469.24,1028.69c0-.23,0,.25,0,.25a1.5,1.5,0,0,0,3,0c0-.35-.07-.7-.12-1a1.51,1.51,0,0,0-1.85-1,1.54,1.54,0,0,0-1,1.85Z"/><path class="cls-1" d="M472.26,1029l-.07-.67a1.54,1.54,0,0,0-1.5-1.5,1.52,1.52,0,0,0-1.5,1.5l.07.67a1.54,1.54,0,0,0,1.5,1.5,1.52,1.52,0,0,0,1.5-1.5Z"/><path class="cls-1" d="M469.43,1028.24q0-.39,0,0l0,.3c0,.23,0,.46.05.7a1.5,1.5,0,0,0,3,0c0-.31,0-.61,0-.91s-.07-.75-.11-1.12a1.53,1.53,0,0,0-1.5-1.5,1.52,1.52,0,0,0-1.5,1.5c0,.37.09.74.11,1.12s0,.61,0,.91h3a9.39,9.39,0,0,0-.17-1.8,1.5,1.5,0,0,0-2.89.8Z"/><path class="cls-1" d="M469.4,1030.19l-.23-.6a2.33,2.33,0,0,0,.06.45,1.66,1.66,0,0,0,.4.71,1.81,1.81,0,0,0,1.21.52,1.5,1.5,0,0,0,1.3-.74,1.62,1.62,0,0,0,.27-.85c0-.06,0-.4,0-.25h-2.89a1.8,1.8,0,0,1,.09.33c0-.16,0,.09,0,.16a1.8,1.8,0,0,0,.27,1,1.51,1.51,0,0,0,2.74-1.16c0-.14-.05-.28-.08-.42s-.05-.36,0-.19a1.54,1.54,0,0,0-1.5-1.5c-.73,0-1.61.67-1.5,1.5.06.47.13.94.22,1.41l2.74-1.16q.16.83.14.32a2.83,2.83,0,0,0,0-.37,4.19,4.19,0,0,0-.14-.7,1.51,1.51,0,0,0-2.89,0,3.73,3.73,0,0,0-.11,1l.2-.76-.06.09,1.3-.74h-.09l1.06.44-.06-.07.39.66c.14.6-.09-.38-.14-.51a2.32,2.32,0,0,0-.47-.71,1.5,1.5,0,0,0-2.12,2.12Z"/><rect class="cls-10" x="601.88" y="935" width="11.25" height="72.5"/><circle class="cls-11" cx="608.13" cy="929.75" r="2.5"/><circle class="cls-12" cx="616.25" cy="929.75" r="2.5"/><circle class="cls-13" cx="624.21" cy="929.75" r="2.5"/><rect class="cls-7" x="620.33" y="939.83" width="12.75" height="5.5"/><rect class="cls-7" x="630.17" y="948" width="12.75" height="5.5"/><rect class="cls-7" x="630.17" y="955.75" width="15.38" height="5.5"/><rect class="cls-7" x="630.17" y="963.58" width="12.75" height="5.5"/><rect class="cls-7" x="620.33" y="972.08" width="12.75" height="5.5"/><rect class="cls-7" x="620.33" y="980.33" width="12.75" height="5.5"/><rect class="cls-7" x="630.17" y="988.67" width="15.38" height="5.5"/><rect class="cls-7" x="639.17" y="996.67" width="10.83" height="5.5"/><rect class="cls-1" x="645.54" y="948" width="21.46" height="5.5"/><rect class="cls-7" x="669.83" y="948" width="12.75" height="5.5"/><rect class="cls-1" x="685.5" y="948" width="16.5" height="5.5"/><rect class="cls-4" x="647.75" y="955.75" width="10.42" height="5.5"/><rect class="cls-1" x="660.33" y="955.75" width="17.67" height="5.5"/><rect class="cls-7" x="680" y="955.75" width="9.17" height="5.5"/><rect class="cls-1" x="691.67" y="955.75" width="12.75" height="5.5"/><rect class="cls-1" x="645.25" y="963.58" width="20.08" height="5.5"/><rect class="cls-7" x="667" y="963.58" width="12.75" height="5.5"/><rect class="cls-4" x="652.96" y="996.67" width="10.37" height="5.5"/><text class="cls-14" transform="translate(605.63 944.59)">1<tspan x="0" y="8.4">2</tspan><tspan x="0" y="16.8">3</tspan><tspan x="0" y="25.2">4</tspan><tspan x="0" y="33.6">5</tspan><tspan x="0" y="42">6</tspan><tspan x="0" y="50.4">7</tspan><tspan x="0" y="58.8">8</tspan></text><circle class="cls-11" cx="507.67" cy="884.25" r="2.5"/><circle class="cls-12" cx="515.67" cy="884.25" r="2.5"/><circle class="cls-13" cx="523.46" cy="884.25" r="2.5"/></g><g id="Coffee"><polygon class="cls-4" points="774 969 747.29 969 748.44 987 774 987 774 969"/><polygon class="cls-15" points="774 969 774 987 799.56 987 800.71 969 774 969"/><polygon class="cls-4" points="750.69 1022 752 1042.5 774 1042.5 774 1022 750.69 1022"/><polygon class="cls-15" points="774 1042.5 796 1042.5 797.31 1022 774 1022 774 1042.5"/><polygon class="cls-2" points="746.5 987 749.25 1022 750.69 1022 748.44 987 746.5 987"/><polygon class="cls-16" points="798.75 1022 801.5 987 799.56 987 797.31 1022 798.75 1022"/><path class="cls-2" d="M774,1020.33a15.83,15.83,0,0,1,0-31.67V987H748.44l2.24,35H774Z"/><path class="cls-16" d="M774,988.67a15.83,15.83,0,0,1,0,31.67V1022h23.31l2.24-35H774Z"/><polygon class="cls-16" points="801 964.5 800.71 969 805.5 969 805.5 961.75 774 961.75 774 964.5 801 964.5"/><polygon class="cls-2" points="774 964.5 774 961.75 742.5 961.75 742.5 969 747.29 969 747 964.5 774 964.5"/><polygon class="cls-16" points="774 964.5 774 969 800.71 969 801 964.5 774 964.5"/><polygon class="cls-2" points="774 964.5 747 964.5 747.29 969 774 969 774 964.5"/><polygon class="cls-17" points="798.5 952.67 774 952.67 774 961.54 801 961.54 798.5 952.67"/><polygon class="cls-3" points="749.5 952.67 747 961.54 774 961.54 774 952.67 749.5 952.67"/><path class="cls-3" d="M758.17,1004.5A15.83,15.83,0,0,0,774,1020.33V988.67A15.83,15.83,0,0,0,758.17,1004.5Z"/><path class="cls-17" d="M789.83,1004.5A15.83,15.83,0,0,0,774,988.67v31.67A15.83,15.83,0,0,0,789.83,1004.5Z"/><rect class="cls-4" x="757.75" y="938" width="30" height="10" rx="5" ry="5"/><circle class="cls-4" cx="794.41" cy="943" r="5"/><rect class="cls-4" x="762.75" y="928" width="20" height="10"/><circle class="cls-1" cx="782.25" cy="933" r="5"/><circle class="cls-1" cx="762.25" cy="933" r="5"/><rect class="cls-4" x="758.75" y="918" width="41" height="10" rx="5" ry="5"/><circle class="cls-4" cx="751.5" cy="923" r="5"/></g></svg>