<?xml version="1.0" encoding="utf-8"?>
<!-- Generator: Adobe Illustrator 21.1.0, SVG Export Plug-In . SVG Version: 6.00 Build 0)  -->
<svg version="1.1" xmlns="http://www.w3.org/2000/svg" xmlns:xlink="http://www.w3.org/1999/xlink" x="0px" y="0px"
	 viewBox="0 0 1200 1200" style="enable-background:new 0 0 1200 1200;" xml:space="preserve">
<style type="text/css">
	.st0{fill:#A2FDDA;}
	.st1{fill:#60FFC7;}
	.st2{fill:#1D3242;}
	.st3{fill:#FFFFFF;}
	.st4{fill:#D7E0DB;}
	.st5{fill:#2C4151;}
	.st6{fill:#FE7D81;}
	.st7{fill:#C8D1CC;}
	.st8{opacity:0.5;fill:#FFFFFF;}
	.st9{fill:#B9C2BD;}
	.st10{fill:#29AF25;}
	.st11{fill:#F1C40F;}
	.st12{fill:#C11010;}
	.st13{fill:none;}
	.st14{fill:#0E2333;}
	.st15{fill:#F0F0F0;}
	.st16{fill:#51F0B8;}
</style>
<g id="Background">
	<rect class="st0" width="1200" height="1200"/>
</g>
<g id="Desk">
	<rect x="85" y="1042.5" class="st1" width="1040" height="40"/>
</g>
<g id="Laptop">
	<path class="st2" d="M730,1034H484V870c0-5.5,4.5-10,10-10h226c5.5,0,10,4.5,10,10V1034z"/>
	<path class="st3" d="M727.5,1042.5h-240c-8.3,0-15-6.7-15-15l0,0h270l0,0C742.5,1035.8,735.8,1042.5,727.5,1042.5z"/>
	<rect x="492.5" y="870" class="st3" width="228" height="147"/>
	<rect x="502" y="879" class="st4" width="148" height="109.7"/>
	<rect x="502" y="879" class="st5" width="148" height="10.5"/>
	<rect x="515.7" y="901.7" class="st6" width="120.9" height="64.7"/>
	<rect x="602" y="924.5" class="st7" width="108.5" height="83"/>
	<rect x="515.7" y="972.1" class="st0" width="86.7" height="16.6"/>
	<rect x="602" y="924.5" class="st5" width="108.5" height="10.5"/>
	
		<rect x="411.8" y="884.2" transform="matrix(0.7071 -0.7071 0.7071 0.7071 -490.2117 651.0245)" class="st8" width="258" height="66"/>
	
		<rect x="570" y="819" transform="matrix(-0.7071 -0.7071 0.7071 -0.7071 312.9563 2025.6307)" class="st8" width="12" height="258"/>
	<rect x="521" y="790.3" class="st0" width="162.7" height="69.7"/>
	<rect x="416.3" y="860" class="st0" width="67.7" height="167.5"/>
	<rect x="508.3" y="860" class="st2" width="172.7" height="10"/>
	<rect x="484" y="907.7" class="st2" width="8.5" height="114.3"/>
	<rect x="484" y="1017" class="st2" width="73.7" height="10.5"/>
	<rect x="486.5" y="1042.5" class="st1" width="12" height="2.3"/>
	<g>
		<g>
			<path class="st0" d="M467.5,1027.6c0,0.5,0,1,0,1.5c1-0.1,2-0.3,2.9-0.4c-0.1-0.5-0.1-1-0.1-1.6c0-0.8-0.7-1.5-1.5-1.5
				c-0.8,0-1.5,0.7-1.5,1.5c0,0.8,0.1,1.6,0.2,2.4c0.1,0.7,1,1.2,1.6,1.1c0.7-0.1,1.3-0.7,1.3-1.5c0-0.5,0-1,0-1.5
				c0-0.8-0.7-1.5-1.5-1.5C468.1,1026.1,467.5,1026.7,467.5,1027.6L467.5,1027.6z"/>
		</g>
	</g>
	<g>
		<g>
			<path class="st0" d="M467.4,1027.3c0.1,0.7,0.2,1.5,0.9,1.9c1,0.6,2,0,2.3-1c0.3-0.7-0.3-1.7-1-1.8c-0.8-0.2-1.6,0.3-1.8,1
				c0,0,0,0.1,0,0.1c0.2-0.3,0.5-0.6,0.7-0.9c0,0,0,0,0,0c0.4-0.1,0.8-0.1,1.2-0.2c0,0,0,0,0,0c0.3,0.3,0.7,0.7,1,1
				c-0.1-0.3-0.1-0.7-0.2-1c-0.1-0.8-1.1-1.2-1.8-1C467.6,1025.7,467.3,1026.5,467.4,1027.3L467.4,1027.3z"/>
		</g>
	</g>
	<g>
		<g>
			<path class="st0" d="M468.8,1027.6c0,0.3,0,0.6,0.1,0.9c0.1,0.8,1.1,1.2,1.8,1c0.8-0.2,1.2-1,1-1.8c0,0.1,0,0.1,0-0.1
				c0-0.8-0.7-1.5-1.5-1.5C469.4,1026.1,468.8,1026.8,468.8,1027.6L468.8,1027.6z"/>
		</g>
	</g>
	<g>
		<g>
			<path class="st0" d="M470.1,1025.6C470.1,1025.6,470.1,1025.6,470.1,1025.6c-0.8,0.3-1.3,1.1-1.1,1.9c0.2,0.8,1.1,1.3,1.8,1
				c0,0,0,0,0.1,0c0.8-0.2,1.3-1,1-1.8C471.8,1025.9,470.9,1025.3,470.1,1025.6L470.1,1025.6z"/>
		</g>
	</g>
	<g>
		<g>
			<path class="st0" d="M469.1,1027.9c0.2,0.3,0.4,0.5,0.7,0.7c0.7,0.3,1.6,0.2,2.1-0.5c0.4-0.6,0.2-1.7-0.5-2.1c0,0-0.1,0-0.1-0.1
				c0.2,0.2,0.4,0.4,0.5,0.5c0,0-0.1-0.1-0.1-0.1c-0.5-0.6-1.3-1-2.1-0.5C469,1026.2,468.6,1027.2,469.1,1027.9L469.1,1027.9z"/>
		</g>
	</g>
	<g>
		<g>
			<path class="st0" d="M470.8,1028.9c1.9,0,1.9-3,0-3C468.9,1025.9,468.9,1028.9,470.8,1028.9L470.8,1028.9z"/>
		</g>
	</g>
	<g>
		<g>
			<path class="st0" d="M470.8,1028.9c1.9,0,1.9-3,0-3C468.9,1025.9,468.9,1028.9,470.8,1028.9L470.8,1028.9z"/>
		</g>
	</g>
	<g>
		<g>
			<path class="st0" d="M470.8,1028.9c1.9,0,1.9-3,0-3C468.9,1025.9,468.9,1028.9,470.8,1028.9L470.8,1028.9z"/>
		</g>
	</g>
	<g>
		<g>
			<path class="st0" d="M470.8,1028.9c1.9,0,1.9-3,0-3C468.9,1025.9,468.9,1028.9,470.8,1028.9L470.8,1028.9z"/>
		</g>
	</g>
	<g>
		<g>
			<path class="st0" d="M469.4,1027.5C469.4,1027.5,469.4,1027.5,469.4,1027.5c0,0.8,0.7,1.6,1.5,1.6c0.8,0,1.5-0.7,1.5-1.5
				c0,0,0,0,0-0.1c0-0.8-0.7-1.5-1.5-1.5C470,1026,469.4,1026.7,469.4,1027.5L469.4,1027.5z"/>
		</g>
	</g>
	<g>
		<g>
			<path class="st0" d="M470.8,1029.1c1.9,0,1.9-3,0-3C468.9,1026.1,468.9,1029.1,470.8,1029.1L470.8,1029.1z"/>
		</g>
	</g>
	<g>
		<g>
			<path class="st0" d="M470.8,1029.1c1.9,0,1.9-3,0-3C468.9,1026.1,468.9,1029.1,470.8,1029.1L470.8,1029.1z"/>
		</g>
	</g>
	<g>
		<g>
			<path class="st0" d="M470.9,1029.1c1.9,0,1.9-3,0-3C468.9,1026.1,468.9,1029.1,470.9,1029.1L470.9,1029.1z"/>
		</g>
	</g>
	<g>
		<g>
			<path class="st0" d="M470.9,1029.1c1.9,0,1.9-3,0-3C469,1026.1,469,1029.1,470.9,1029.1L470.9,1029.1z"/>
		</g>
	</g>
	<g>
		<g>
			<path class="st0" d="M471,1029.1c1.9,0,1.9-3,0-3C469,1026.1,469,1029.1,471,1029.1L471,1029.1z"/>
		</g>
	</g>
	<g>
		<g>
			<path class="st0" d="M469.7,1026.8c0,0.1-0.1,0.2-0.1,0.3c-0.3,0.7-0.2,1.6,0.5,2.1c0.6,0.4,1.7,0.2,2.1-0.5
				c0-0.1,0.1-0.2,0.1-0.3c0.3-0.7,0.2-1.6-0.5-2.1C471.1,1025.9,470,1026.1,469.7,1026.8L469.7,1026.8z"/>
		</g>
	</g>
	<g>
		<g>
			<path class="st0" d="M470.1,1026.7c0.1,0,0.2-0.1,0.3-0.1c-0.8-0.1-1.5,0.7-1.5,1.5c0,0.9,0.7,1.4,1.5,1.5c0.4,0,0.8-0.1,1.2-0.3
				c0.7-0.5,1-1.3,0.5-2.1C471.7,1026.6,470.7,1026.2,470.1,1026.7L470.1,1026.7z"/>
		</g>
	</g>
	<g>
		<g>
			<path class="st0" d="M470.9,1031c1.9,0,1.9-3,0-3C468.9,1028,468.9,1031,470.9,1031L470.9,1031z"/>
		</g>
	</g>
	<g>
		<g>
			<path class="st0" d="M469,1031.8c1.9,0,1.9-3,0-3C467.1,1028.8,467.1,1031.8,469,1031.8L469,1031.8z"/>
		</g>
	</g>
	<g>
		<g>
			<path class="st0" d="M469.3,1028.1c0,0.7,0.3,1.4,0.3,2.1c0.1,0.9,0.3,1.6,0.7,2.4c0.4,0.7,1.4,0.9,2.1,0.5
				c0.7-0.4,0.9-1.3,0.5-2.1c-0.2-0.3-0.2-0.7-0.3-1.1c-1,0.1-2,0.3-2.9,0.4c0.1,0.4,0.2,0.6,0.2,1c-0.1,1.9,2.9,1.9,3,0
				c0-0.6-0.1-1.2-0.3-1.8c-0.5-1.5-3-1.4-2.9,0.4c0,0.9,0.3,1.7,0.7,2.6c0.9-0.5,1.7-1,2.6-1.5c-0.2-0.4-0.2-0.8-0.3-1.3
				c0-0.5-0.3-1.1-0.3-1.6C472.4,1026.2,469.4,1026.2,469.3,1028.1L469.3,1028.1z"/>
		</g>
	</g>
	<g>
		<g>
			<path class="st0" d="M468.9,1026.3c-0.1,0.7,0.1,1.2,0.2,1.9c0.2,0.8,1.1,1.3,1.8,1c0.8-0.2,1.2-1.1,1-1.8
				c-0.1-0.3-0.2-0.6-0.3-0.9c0,0.3,0,0.5,0,0.8c0-0.1,0-0.1,0-0.2c0.2-0.8-0.2-1.7-1-1.8C470,1025.1,469.1,1025.5,468.9,1026.3
				L468.9,1026.3z"/>
		</g>
	</g>
	<g>
		<g>
			<path class="st0" d="M469.2,1028.7c0-0.2,0,0.2,0,0.2c0,0.8,0.7,1.5,1.5,1.5c0.8,0,1.5-0.7,1.5-1.5c0-0.4-0.1-0.7-0.1-1
				c-0.1-0.8-1.1-1.2-1.8-1C469.4,1027.1,469.1,1027.9,469.2,1028.7L469.2,1028.7z"/>
		</g>
	</g>
	<g>
		<g>
			<path class="st0" d="M472.3,1029c0-0.2,0-0.4-0.1-0.7c-0.1-0.8-0.6-1.5-1.5-1.5c-0.7,0-1.6,0.7-1.5,1.5c0,0.2,0,0.4,0.1,0.7
				c0.1,0.8,0.6,1.5,1.5,1.5C471.5,1030.5,472.4,1029.9,472.3,1029L472.3,1029z"/>
		</g>
	</g>
	<g>
		<g>
			<path class="st0" d="M469.4,1028.2C469.4,1028,469.4,1028,469.4,1028.2c0,0.1,0,0.2,0,0.3c0,0.2,0,0.5,0.1,0.7
				c0.1,0.8,0.6,1.5,1.5,1.5c0.8,0,1.6-0.7,1.5-1.5c0-0.3,0-0.6,0-0.9c0-0.4-0.1-0.7-0.1-1.1c-0.1-0.8-0.6-1.5-1.5-1.5
				c-0.7,0-1.6,0.7-1.5,1.5C469.4,1027.6,469.5,1028,469.4,1028.2c0.1,0.4,0,0.7,0.1,1c1,0,2,0,3,0c0-0.6,0-1.2-0.2-1.8
				c-0.2-0.8-1.1-1.3-1.8-1C469.7,1026.6,469.2,1027.5,469.4,1028.2L469.4,1028.2z"/>
		</g>
	</g>
	<g>
		<g>
			<path class="st0" d="M469.4,1030.2c-0.1-0.2-0.2-0.4-0.2-0.6c0,0.2,0,0.3,0.1,0.4c0.1,0.3,0.2,0.5,0.4,0.7
				c0.3,0.4,0.7,0.5,1.2,0.5c0.5,0.1,1-0.3,1.3-0.7c0.2-0.3,0.3-0.5,0.3-0.8c0-0.1,0-0.4,0-0.3c-1,0-1.9,0-2.9,0
				c0,0.1,0.1,0.2,0.1,0.3c0-0.2,0,0.1,0,0.2c0,0.3,0.1,0.7,0.3,1c1,1.4,3.1,0.6,2.7-1.2c0-0.1-0.1-0.3-0.1-0.4c0,0-0.1-0.4,0-0.2
				c-0.1-0.8-0.6-1.5-1.5-1.5c-0.7,0-1.6,0.7-1.5,1.5c0.1,0.5,0.1,0.9,0.2,1.4c0.9-0.4,1.8-0.8,2.7-1.2c0.1,0.6,0.2,0.7,0.1,0.3
				c0-0.1,0-0.2,0-0.4c0-0.2-0.1-0.5-0.1-0.7c-0.4-1.4-2.5-1.5-2.9,0c-0.1,0.4-0.1,0.7-0.1,1c0.1-0.3,0.1-0.5,0.2-0.8
				c0,0,0,0.1-0.1,0.1c0.4-0.2,0.9-0.5,1.3-0.7c0,0-0.1,0-0.1,0c0.4,0.1,0.7,0.3,1.1,0.4c0,0,0,0-0.1-0.1c0.1,0.2,0.3,0.4,0.4,0.7
				c0.1,0.6-0.1-0.4-0.1-0.5c-0.1-0.3-0.3-0.5-0.5-0.7c-0.5-0.6-1.6-0.6-2.1,0C468.8,1028.7,468.8,1029.6,469.4,1030.2L469.4,1030.2
				z"/>
		</g>
	</g>
	<rect x="601.9" y="935" class="st9" width="11.3" height="72.5"/>
	<circle class="st10" cx="608.1" cy="929.8" r="2.5"/>
	<circle class="st11" cx="616.3" cy="929.8" r="2.5"/>
	<circle class="st12" cx="624.2" cy="929.8" r="2.5"/>
	<rect x="620.3" y="939.8" class="st6" width="12.8" height="5.5"/>
	<rect x="630.2" y="948" class="st6" width="12.8" height="5.5"/>
	<rect x="630.2" y="955.8" class="st6" width="15.4" height="5.5"/>
	<rect x="630.2" y="963.6" class="st6" width="12.8" height="5.5"/>
	<rect x="620.3" y="972.1" class="st6" width="12.8" height="5.5"/>
	<rect x="620.3" y="980.3" class="st6" width="12.8" height="5.5"/>
	<rect x="630.2" y="988.7" class="st6" width="15.4" height="5.5"/>
	<rect x="639.2" y="996.7" class="st6" width="10.8" height="5.5"/>
	<rect x="645.5" y="948" class="st0" width="21.5" height="5.5"/>
	<rect x="669.8" y="948" class="st6" width="12.8" height="5.5"/>
	<rect x="685.5" y="948" class="st0" width="16.5" height="5.5"/>
	<rect x="647.8" y="955.8" class="st3" width="10.4" height="5.5"/>
	<rect x="660.3" y="955.8" class="st0" width="17.7" height="5.5"/>
	<rect x="680" y="955.8" class="st6" width="9.2" height="5.5"/>
	<rect x="691.7" y="955.8" class="st0" width="12.8" height="5.5"/>
	<rect x="645.3" y="963.6" class="st0" width="20.1" height="5.5"/>
	<rect x="667" y="963.6" class="st6" width="12.8" height="5.5"/>
	<rect x="653" y="996.7" class="st3" width="10.4" height="5.5"/>
	<circle class="st10" cx="507.7" cy="884.3" r="2.5"/>
	<circle class="st11" cx="515.7" cy="884.3" r="2.5"/>
	<circle class="st12" cx="523.5" cy="884.3" r="2.5"/>
</g>
<g id="Coffee">
	<line class="st13" x1="774" y1="952.7" x2="774" y2="1042.5"/>
	<line class="st13" x1="774" y1="943.5" x2="774" y2="1047"/>
	<line class="st13" x1="774" y1="952.7" x2="774" y2="1042.5"/>
	<line class="st13" x1="774" y1="952.7" x2="774" y2="1020.3"/>
	<line class="st13" x1="777.7" y1="1020.3" x2="777.7" y2="1034"/>
	<ellipse class="st14" cx="774" cy="1003.7" rx="14.9" ry="16.7"/>
	<rect x="761.2" y="953" class="st2" width="24.4" height="8.3"/>
	<g>
		<polygon class="st3" points="774,969 747.3,969 748.4,987 774,987 		"/>
		<polygon class="st15" points="774,969 774,987 799.6,987 800.7,969 		"/>
		<polygon class="st3" points="750.7,1022 752,1042.5 774,1042.5 774,1022 		"/>
		<polygon class="st15" points="774,1042.5 796,1042.5 797.3,1022 774,1022 		"/>
		<polygon class="st1" points="746.5,987 749.3,1022 750.7,1022 748.4,987 		"/>
		<polygon class="st16" points="798.5,1022 801.4,987 799.3,987 797,1022 		"/>
		<path class="st1" d="M774,1020.3c-8.7,0-15.8-7.1-15.8-15.8s7.1-15.8,15.8-15.8V987h-25.6l2.2,35H774V1020.3z"/>
		<path class="st16" d="M774,988.7c8.7,0,15.8,7.1,15.8,15.8s-7.1,15.8-15.8,15.8v1.7h23.3l2.2-35H774V988.7z"/>
		<polygon class="st16" points="801,964.5 800.7,969 805.5,969 805.5,961.8 774,961.8 774,964.5 		"/>
		<polygon class="st1" points="774,964.5 774,961.8 742.5,961.8 742.5,969 747.3,969 747,964.5 		"/>
		<polygon class="st16" points="774,964.5 774,969 800.7,969 801,964.5 		"/>
		<polygon class="st1" points="774,964.5 747,964.5 747.3,969 774,969 		"/>
		<polygon class="st14" points="798.5,952.7 774,952.7 774,961.5 801,961.5 		"/>
		<polygon class="st2" points="749.5,952.7 747,961.5 774,961.5 774,952.7 		"/>
		<path class="st2" d="M758.2,1004.5c0,8.7,7.1,15.8,15.8,15.8v-31.7C765.3,988.7,758.2,995.8,758.2,1004.5z"/>
		<path class="st14" d="M789.8,1004.5c0-8.7-7.1-15.8-15.8-15.8v31.7C782.7,1020.3,789.8,1013.2,789.8,1004.5z"/>
	</g>
	<path class="st3" d="M782.8,948h-20c-2.8,0-5-2.2-5-5l0,0c0-2.8,2.2-5,5-5h20c2.8,0,5,2.2,5,5l0,0C787.8,945.8,785.5,948,782.8,948
		z"/>
	<path class="st15" d="M-nan(ind)-nan(ind)c-nan(ind)-nan(ind)-nan(ind)-nan(ind)-nan(ind)-nan(ind)
		c-nan(ind)-nan(ind)-nan(ind)-nan(ind)-nan(ind)-nan(ind)c-nan(ind)-nan(ind)-nan(ind)-nan(ind)-nan(ind)-nan(ind)
		c-nan(ind)-nan(ind)-nan(ind)-nan(ind)-nan(ind)-nan(ind)z"/>
	<circle class="st3" cx="794.4" cy="943" r="5"/>
	<rect x="762.8" y="926.7" class="st3" width="20" height="12.7"/>
	<circle class="st0" cx="782.3" cy="933" r="5"/>
	<circle class="st0" cx="762.3" cy="933" r="5"/>
	<path class="st3" d="M794.8,928h-31c-2.8,0-5-2.2-5-5l0,0c0-2.8,2.2-5,5-5h31c2.8,0,5,2.2,5,5l0,0C799.8,925.8,797.5,928,794.8,928
		z"/>
	<circle class="st3" cx="751.5" cy="923" r="5"/>
</g>
<g id="Books">
</g>
<g id="Shelf">
</g>
<g id="Layer_7">
</g>
</svg>
